<!DOCTYPE svg PUBLIC "-//W3C//DTD SVG 1.1//EN" "http://www.w3.org/Graphics/SVG/1.1/DTD/svg11.dtd">
<svg xmlns="http://www.w3.org/2000/svg" xmlns:xlink="http://www.w3.org/1999/xlink" width="384px" height="205px" version="1.1"><defs/><g transform="translate(0.5,0.5)"><path d="M 1 74.05 L 83.43 1 L 381 1 L 322.57 74.05 Z M 322.57 197.86 L 381 124.81 L 381 1 L 322.57 74.05 Z M 322.57 197.86 L 322.57 74.05 L 1 74.05 L 1 197.86 Z" fill="#000000" stroke="#000000" stroke-width="2" stroke-linejoin="round" stroke-miterlimit="10" transform="translate(2,3)" opacity="0.25"/><path d="M 1 74.05 L 83.43 1 L 381 1 L 322.57 74.05 Z M 322.57 197.86 L 381 124.81 L 381 1 L 322.57 74.05 Z M 322.57 197.86 L 322.57 74.05 L 1 74.05 L 1 197.86 Z" fill="#036897" stroke="#ffffff" stroke-width="2" stroke-linejoin="round" stroke-miterlimit="10" pointer-events="none"/><path d="M 301.29 137.48 C 301.29 137.48 280 201 256.09 137.48 C 229.54 74.05 210.97 137.48 210.97 137.48 C 210.97 137.48 189.68 201 163.14 137.48 C 139.23 74.05 117.94 137.48 117.94 137.48 C 117.94 137.48 96.66 201 72.74 137.48 C 46.2 74.05 27.62 137.48 27.62 137.48" fill="none" stroke="#000000" stroke-width="5.34" stroke-linejoin="round" stroke-linecap="round" stroke-miterlimit="10" pointer-events="none"/><path d="M 27.62 137.48 C 27.62 137.48 46.2 201 72.74 137.48 C 96.66 74.05 117.94 137.48 117.94 137.48 C 117.94 137.48 139.23 201 163.14 137.48 C 189.68 74.05 210.97 137.48 210.97 137.48 C 210.97 137.48 229.54 201 256.09 137.48 C 280 74.05 301.29 137.48 301.29 137.48" fill="none" stroke="#000000" stroke-width="10.6" stroke-linejoin="round" stroke-linecap="round" stroke-miterlimit="10" pointer-events="none"/><path d="M 295.94 137.48 C 295.94 137.48 274.74 201 250.83 137.48 C 226.91 74.05 205.63 137.48 205.63 137.48 C 205.63 137.48 184.34 201 157.8 137.48 C 133.88 74.05 112.6 137.48 112.6 137.48 C 112.6 137.48 91.4 201 67.48 137.48 C 43.57 74.05 22.28 137.48 22.28 137.48" fill="none" stroke="#ffffff" stroke-width="5.34" stroke-linejoin="round" stroke-linecap="round" stroke-miterlimit="10" pointer-events="none"/><path d="M 22.28 137.48 C 22.28 137.48 43.57 201 67.48 137.48 C 91.4 74.05 112.6 137.48 112.6 137.48 C 112.6 137.48 133.88 201 160.43 137.48 C 184.34 74.05 205.63 137.48 205.63 137.48 C 205.63 137.48 226.91 201 250.83 137.48 C 274.74 74.05 295.94 137.48 295.94 137.48" fill="none" stroke="#ffffff" stroke-width="10.6" stroke-linejoin="round" stroke-linecap="round" stroke-miterlimit="10" pointer-events="none"/></g></svg>