<!DOCTYPE svg PUBLIC "-//W3C//DTD SVG 1.1//EN" "http://www.w3.org/Graphics/SVG/1.1/DTD/svg11.dtd">
<svg xmlns="http://www.w3.org/2000/svg" xmlns:xlink="http://www.w3.org/1999/xlink" width="364" height="170" version="1.1"><defs><filter id="dropShadow"><feGaussianBlur in="SourceAlpha" stdDeviation="1.7" result="blur"/><feOffset in="blur" dx="3" dy="3" result="offsetBlur"/><feFlood flood-color="#3D4574" flood-opacity="0.4" result="offsetColor"/><feComposite in="offsetColor" in2="offsetBlur" operator="in" result="offsetBlur"/><feBlend in="SourceGraphic" in2="offsetBlur"/></filter></defs><g transform="translate(0.5,0.5)" filter="url(#dropShadow)"><path d="M 0 109.88 L 0 46.27 L 193.46 0 L 355 49.16 L 355 113.73 L 163.47 160 Z" fill="#000000" stroke="none" transform="translate(2,3)" opacity="0.25"/><path d="M 0 109.88 L 0 46.27 L 193.46 0 L 355 49.16 L 355 113.73 L 163.47 160 Z" fill="#b7bed1" stroke="none" pointer-events="none"/><path d="M 0 46.27 L 163.47 97.35 L 163.47 160 L 0 109.88 Z" fill="#99a3b4" stroke="none" pointer-events="none"/><path d="M 163.47 97.35 L 355 50.12 L 355 113.73 L 163.47 160 Z" fill="#5b6369" stroke="none" pointer-events="none"/><path d="M 35.6 57.06 C 43.94 50.28 53.35 44.94 63.46 41.25 C 80.03 35.29 96.81 29.89 113.75 25.06 C 128.95 20.72 144.48 17.63 160.19 15.81 C 174.06 14.18 188.07 14.05 201.97 15.42 C 233.52 20.42 264.32 29.29 293.67 41.83 C 302.95 45.33 310.92 51.59 316.5 59.76 C 318.75 64.99 319.81 70.65 319.6 76.34 C 320.33 86.38 319.08 96.46 315.92 106.02 C 313.2 113.9 307.21 120.22 299.48 123.37 C 283.56 128.5 267.04 131.54 250.34 132.43 C 221.44 134.57 192.43 135.08 163.47 133.98 C 139.05 133.12 114.76 129.96 90.93 124.53 C 75.09 120.17 59.88 113.83 45.66 105.64 C 35.81 98.49 30.15 86.93 30.57 74.8 C 30.51 68.53 32.25 62.37 35.6 57.06 Z" fill-opacity="0.4" fill="#ffffff" stroke="none" pointer-events="none"/><rect x="0" y="0" width="0" height="0" fill="none" stroke="none" transform="translate(2,3)" opacity="0.25"/><path d="M 77.96 55.9 L 86.09 46.27 L 92.86 49.35 L 138.13 37.78 L 150.9 41.25 L 104.08 53.01 L 112.79 54.36 Z M 192.69 55.52 L 184.56 64.58 L 176.44 62.07 L 131.94 73.64 L 121.49 69.4 L 164.44 59.18 L 158.64 57.45 Z M 158.48 35.66 L 166.61 26.02 L 173.38 29.11 L 218.65 17.54 L 231.42 21.01 L 184.6 32.77 L 193.31 34.12 Z M 273.2 35.51 L 265.08 44.57 L 256.95 42.06 L 212.46 53.65 L 202.01 49.39 L 244.96 39.17 L 239.16 37.44 Z" fill="#353232" stroke="none" pointer-events="none"/><path d="M 0 109.88 L 0 46.27 L 193.46 0 L 355 49.16 L 355 113.73 L 163.47 160 Z" fill="none" stroke="#000000" stroke-width="2.31" stroke-miterlimit="10" pointer-events="none"/></g></svg>