<!DOCTYPE svg PUBLIC "-//W3C//DTD SVG 1.1//EN" "http://www.w3.org/Graphics/SVG/1.1/DTD/svg11.dtd">
<svg xmlns="http://www.w3.org/2000/svg" xmlns:xlink="http://www.w3.org/1999/xlink" width="457" height="277" version="1.1"><defs><filter id="dropShadow"><feGaussianBlur in="SourceAlpha" stdDeviation="1.7" result="blur"/><feOffset in="blur" dx="3" dy="3" result="offsetBlur"/><feFlood flood-color="#3D4574" flood-opacity="0.4" result="offsetColor"/><feComposite in="offsetColor" in2="offsetBlur" operator="in" result="offsetBlur"/><feBlend in="SourceGraphic" in2="offsetBlur"/></filter></defs><g transform="translate(0.5,0.5)" filter="url(#dropShadow)"><path d="M 17.17 270 C 7.54 269.44 -0.01 260.12 0 248.82 L 0 156.18 C -0.01 144.88 7.54 135.56 17.17 135 L 432.79 135 C 442.41 135.56 449.97 144.88 449.95 156.18 L 449.95 248.82 C 449.97 260.12 442.41 269.44 432.79 270 Z M 66.86 229.24 C 73.22 230.29 79.67 228.13 84.58 223.27 C 89.5 218.42 92.42 211.35 92.61 203.82 C 93.09 195.84 90.46 188.03 85.46 182.58 C 80.46 177.13 73.62 174.62 66.86 175.76 C 54.56 176.89 45.3 189.39 46.08 203.82 C 46.5 217.25 55.44 228.17 66.86 229.24 Z M 170.77 229.24 C 177.06 230.13 183.38 227.89 188.19 223.06 C 193 218.22 195.86 211.25 196.06 203.82 C 196.52 195.94 193.95 188.24 189.05 182.81 C 184.16 177.38 177.45 174.8 170.77 175.76 C 158.46 176.89 149.21 189.39 149.98 203.82 C 150.41 217.25 159.34 228.17 170.77 229.24 Z M 276.93 229.24 C 289.24 229.54 299.48 218.24 299.97 203.82 C 300.35 196.44 298.08 189.21 293.7 183.87 C 289.32 178.54 283.24 175.6 276.93 175.76 C 270.62 175.6 264.54 178.54 260.16 183.87 C 255.78 189.21 253.51 196.44 253.89 203.82 C 254.38 218.24 264.62 229.54 276.93 229.24 Z M 383.09 229.24 C 394.52 228.17 403.45 217.25 403.88 203.82 C 404.65 189.39 395.4 176.89 383.09 175.76 C 376.41 174.8 369.7 177.38 364.81 182.81 C 359.91 188.24 357.34 195.94 357.8 203.82 C 358 211.25 360.86 218.22 365.67 223.06 C 370.48 227.89 376.8 230.13 383.09 229.24 Z M 449.05 94.24 L 0.9 94.24 L 83.12 0 L 366.38 0 Z" fill="#00188d" stroke="none" pointer-events="none"/></g></svg>