<!DOCTYPE svg PUBLIC "-//W3C//DTD SVG 1.1//EN" "http://www.w3.org/Graphics/SVG/1.1/DTD/svg11.dtd">
<svg xmlns="http://www.w3.org/2000/svg" xmlns:xlink="http://www.w3.org/1999/xlink" width="424px" height="215px" version="1.1"><defs/><g transform="translate(0.5,0.5)"><path d="M 1 94.08 L 126.35 1 L 421 1 L 315.44 94.08 Z M 315.44 211 L 421 115.9 L 421 1 L 315.44 94.08 Z M 315.44 211 L 315.44 94.08 L 1 94.08 L 1 211 Z" fill="#000000" stroke="#000000" stroke-width="2" stroke-linejoin="round" stroke-miterlimit="10" transform="translate(2,3)" opacity="0.25"/><path d="M 1 94.08 L 126.35 1 L 421 1 L 315.44 94.08 Z M 315.44 211 L 421 115.9 L 421 1 L 315.44 94.08 Z M 315.44 211 L 315.44 94.08 L 1 94.08 L 1 211 Z" fill="#036897" stroke="#ffffff" stroke-width="2" stroke-linejoin="round" stroke-miterlimit="10" pointer-events="none"/><rect x="1" y="1" width="0" height="0" fill="none" stroke="#000000" stroke-width="2" transform="translate(2,3)" opacity="0.25"/><rect x="1" y="1" width="0" height="0" fill="none" stroke="#ffffff" stroke-width="2" pointer-events="none"/><path d="M 95.54 60.44 L 135.13 56.46 L 128.53 72.33 L 117.51 66.38 L 73.57 82.19 L 64.73 80.23 L 106.56 64.36 Z M 262.66 60.44 L 229.67 56.46 L 231.91 72.33 L 242.87 66.38 L 273.68 80.23 L 282.45 78.27 L 253.88 64.36 Z" fill="#ffffff" stroke="none" pointer-events="none"/><path d="M 302.24 155.54 C 302.24 155.54 282.45 205.06 256.06 155.54 C 231.91 107.99 209.88 155.54 209.88 155.54 C 209.88 155.54 190.09 205.06 163.7 155.54 C 139.55 107.99 117.51 155.54 117.51 155.54 C 117.51 155.54 97.72 205.06 71.33 155.54 C 47.18 107.99 25.15 155.54 25.15 155.54" fill="none" stroke="#000000" stroke-width="3.98" stroke-linecap="round" stroke-miterlimit="10" pointer-events="none"/><path d="M 25.15 155.54 C 25.15 155.54 47.18 205.06 71.33 155.54 C 97.72 107.99 117.51 155.54 117.51 155.54 C 117.51 155.54 139.55 205.06 163.7 155.54 C 190.09 107.99 209.88 155.54 209.88 155.54 C 209.88 155.54 231.91 205.06 256.06 155.54 C 282.45 107.99 302.24 155.54 302.24 155.54" fill="none" stroke="#000000" stroke-width="7.91" stroke-linecap="round" stroke-miterlimit="10" pointer-events="none"/><path d="M 297.89 155.54 C 297.89 155.54 275.85 205.06 251.71 155.54 C 225.32 107.99 205.52 155.54 205.52 155.54 C 205.52 155.54 183.49 205.06 159.34 155.54 C 135.13 107.99 113.16 155.54 113.16 155.54 C 113.16 155.54 93.37 205.06 66.98 155.54 C 42.76 107.99 20.79 155.54 20.79 155.54" fill="none" stroke="#ffffff" stroke-width="3.98" stroke-linecap="round" stroke-miterlimit="10" pointer-events="none"/><path d="M 20.79 155.54 C 20.79 155.54 42.76 205.06 66.98 155.54 C 93.37 107.99 113.16 155.54 113.16 155.54 C 113.16 155.54 135.13 205.06 159.34 155.54 C 185.73 107.99 205.52 155.54 205.52 155.54 C 205.52 155.54 225.32 205.06 251.71 155.54 C 275.85 107.99 297.89 155.54 297.89 155.54" fill="none" stroke="#ffffff" stroke-width="7.91" stroke-linecap="round" stroke-miterlimit="10" pointer-events="none"/><path d="M 203.28 24.78 L 187.91 22.75 L 242.87 10.87 L 267.08 26.74 L 249.46 26.74 L 245.11 26.74 L 214.3 46.53 L 174.71 46.53 L 207.7 24.78 Z M 170.29 70.31 L 157.1 70.31 L 187.91 52.47 L 190.09 70.31 L 179.13 70.31 L 179.13 70.31 L 163.7 86.18 L 152.74 86.18 L 168.12 70.31 Z" fill="#ffffff" stroke="none" pointer-events="none"/></g></svg>